<svg xmlns="http://www.w3.org/2000/svg" viewBox="0 0 515.72 386.23"><defs><style>.cls-1{fill:#fff;}.cls-2{fill:#231f20;}.cls-3{fill:#cdfbfc;}.cls-4{fill:#3dc4c0;}.cls-5{fill:#327c7c;}.cls-6{fill:#bcd631;}.cls-7{fill:#b21e8e;}.cls-8{fill:#4d3e98;}.cls-9{fill:#e23627;}.cls-10{fill:#f26722;}.cls-11{fill:#f2c019;}.cls-12{fill:#d3bd2a;}.cls-13{fill:#cd912d;}.cls-14{fill:#c52b1c;}.cls-15{fill:#fd0;}.cls-16{fill:#00b7c3;}.cls-17{fill:#5eb546;}</style></defs><title>Asset 3</title><g id="Layer_2" data-name="Layer 2"><g id="Layer_1-2" data-name="Layer 1"><rect class="cls-1" width="515.72" height="386.23"/><polygon class="cls-2" points="22.91 62.89 284.99 291.54 458.64 291.54 22.91 62.89"/><polygon class="cls-1" points="366.8 291.54 374.57 291.54 22.91 62.89 366.8 291.54"/><polygon class="cls-3" points="400.66 218.7 380.01 242.93 380.01 107.11 400.66 101.29 400.66 218.7"/><polygon class="cls-4" points="400.66 101.29 380.01 107.11 318.62 99.62 345.94 95.85 400.66 101.29"/><polygon class="cls-5" points="380.05 107.09 380.05 242.87 318.59 211.71 318.59 99.67 380.05 107.09"/><polygon class="cls-5" points="243.5 173.59 222.83 163.09 222.83 100.11 243.5 104.02 243.5 173.59"/><polygon class="cls-3" points="289.9 97.35 243.5 104.02 243.53 117.36 243.5 173.59 259.64 167.34 259.64 114.3 289.9 108.58 289.9 97.35"/><polygon class="cls-4" points="288.54 97.35 242.14 104.02 222.83 100.11 269.2 94.49 288.54 97.35"/><polygon class="cls-5" points="317.23 193.8 261.01 168.71 261.01 115.67 317.23 128.38 317.23 193.8"/><polygon class="cls-3" points="317.23 128.38 261.01 115.67 291.26 109.94 317.23 114.77 317.23 128.38"/><polygon class="cls-5" points="221.46 163.09 157.75 130.24 157.75 103.63 221.46 121.85 221.46 163.09"/><polygon class="cls-3" points="221.46 100.11 221.46 121.85 157.75 103.63 206.61 94.49 226.4 99.52 221.46 100.11"/><polygon class="cls-3" points="183.76 199.56 118.3 143.95 148.86 137.89 225.04 183.25 183.76 199.56"/><polygon class="cls-5" points="183.76 283.47 118.3 192.44 118.3 143.95 183.76 199.56 183.76 283.47"/><polygon class="cls-4" points="225.04 258.45 183.76 283.47 183.76 199.56 225.04 183.25 225.04 258.45"/><polygon class="cls-5" points="82.42 207.76 67.98 173.18 68.03 105.74 83.57 120.49 82.42 207.76"/><polygon class="cls-3" points="83.57 120.49 68.03 105.74 122.09 100.69 148.22 111.8 83.57 120.49"/><path d="M98.7,344.26a27.44,27.44,0,0,1-10.11-1.84,24.27,24.27,0,0,1-8.07-5.14,23.71,23.71,0,0,1-5.31-7.73,25.43,25.43,0,0,1,0-19.34,23.67,23.67,0,0,1,5.31-7.72,24.21,24.21,0,0,1,8-5.15,27.3,27.3,0,0,1,10.14-1.83,27.61,27.61,0,0,1,10.08,1.8,23.86,23.86,0,0,1,8,5.11,23.24,23.24,0,0,1,5.28,7.76,26.2,26.2,0,0,1,0,19.44,23.43,23.43,0,0,1-5.28,7.73,23.83,23.83,0,0,1-8,5.1A27.4,27.4,0,0,1,98.7,344.26Zm0-6.06a19.53,19.53,0,0,0,7.32-1.36,17.41,17.41,0,0,0,5.86-3.85,18.1,18.1,0,0,0,3.88-5.82,18.75,18.75,0,0,0,1.39-7.29,18.16,18.16,0,0,0-5.27-13.07,17.19,17.19,0,0,0-5.86-3.88,20.57,20.57,0,0,0-14.71,0,17.61,17.61,0,0,0-5.89,3.88,18.13,18.13,0,0,0-3.91,5.82,18.45,18.45,0,0,0-1.4,7.25,18.75,18.75,0,0,0,1.4,7.29,17.66,17.66,0,0,0,9.8,9.67A19.71,19.71,0,0,0,98.7,338.2Z"/><path d="M134.38,343.71V296.05h21.38q8.24,0,12.66,3.3a10.67,10.67,0,0,1,4.43,9,11.14,11.14,0,0,1-6.4,10.62,14.34,14.34,0,0,1-6.34,1.43l1.23-2.05a17.29,17.29,0,0,1,7.22,1.43,11.77,11.77,0,0,1,5,4.19,12.12,12.12,0,0,1,1.84,6.84,11.11,11.11,0,0,1-4.6,9.5c-3.06,2.25-7.62,3.37-13.65,3.37Zm6.81-5.51h15.66c3.76,0,6.65-.64,8.64-1.91a7.55,7.55,0,0,0,0-12.05c-2-1.27-4.88-1.91-8.64-1.91H140.57v-5.51h14.57q5.18,0,8-1.91a7.15,7.15,0,0,0,0-11.44q-2.87-1.91-8-1.9H141.19Z"/><path d="M192.05,344.26a18,18,0,0,1-7.9-1.77,15.21,15.21,0,0,1-6-5.11l4-4.63a14.79,14.79,0,0,0,4.46,4.19,10.63,10.63,0,0,0,5.48,1.46q8.16,0,8.17-9.67V302H183v-5.92h24v32.34q0,8-3.78,11.92T192.05,344.26Z"/><path d="M227.65,337.79h27.78v5.92H220.85V296.05h33.63V302H227.65ZM227,316.61h24.51v5.79H227Z"/><path d="M287.71,344.26a27.17,27.17,0,0,1-10-1.81,23.53,23.53,0,0,1-8-5.1,24,24,0,0,1-5.28-7.73,25.76,25.76,0,0,1,0-19.47,23.72,23.72,0,0,1,13.31-12.84,27.32,27.32,0,0,1,10-1.8A27,27,0,0,1,298,297.38a20.91,20.91,0,0,1,7.94,5.55l-4.43,4.29a17.69,17.69,0,0,0-6.13-4.26,19,19,0,0,0-7.28-1.39,20,20,0,0,0-7.46,1.36,18,18,0,0,0-6,3.81,17.3,17.3,0,0,0-3.91,5.82,19.84,19.84,0,0,0,0,14.64,17.1,17.1,0,0,0,3.91,5.82,17.87,17.87,0,0,0,6,3.82,20.23,20.23,0,0,0,7.46,1.36,19,19,0,0,0,7.28-1.4,17.35,17.35,0,0,0,6.13-4.32l4.43,4.29a21.21,21.21,0,0,1-7.94,5.58A26.83,26.83,0,0,1,287.71,344.26Z"/><path d="M324.54,343.71V302H308.2v-5.92h39.42V302H331.28v41.74Z"/><path d="M373.36,343.71V296.05h20.08a28.94,28.94,0,0,1,13.45,3,22.22,22.22,0,0,1,9.06,8.37,25.65,25.65,0,0,1,0,24.92,22.18,22.18,0,0,1-9.06,8.38,29.06,29.06,0,0,1-13.45,3Zm6.81-5.92H393a21.91,21.91,0,0,0,10.24-2.25,16.39,16.39,0,0,0,6.71-6.3,19.65,19.65,0,0,0,0-18.75,16.45,16.45,0,0,0-6.71-6.27A21.91,21.91,0,0,0,393,302H380.17Z"/><path d="M451.11,344.26A27.44,27.44,0,0,1,441,342.42a24.27,24.27,0,0,1-8.07-5.14,23.71,23.71,0,0,1-5.31-7.73,25.56,25.56,0,0,1,0-19.34,23.67,23.67,0,0,1,5.31-7.72,24.21,24.21,0,0,1,8-5.15,29.07,29.07,0,0,1,20.22,0,23.76,23.76,0,0,1,8,5.11,23.24,23.24,0,0,1,5.28,7.76,26.2,26.2,0,0,1,0,19.44,23.43,23.43,0,0,1-5.28,7.73,23.73,23.73,0,0,1-8,5.1A27.4,27.4,0,0,1,451.11,344.26Zm0-6.06a19.53,19.53,0,0,0,7.32-1.36,17.41,17.41,0,0,0,5.86-3.85,18.1,18.1,0,0,0,3.88-5.82,18.75,18.75,0,0,0,1.39-7.29,18.16,18.16,0,0,0-5.27-13.07,17.19,17.19,0,0,0-5.86-3.88,20.54,20.54,0,0,0-14.7,0,17.42,17.42,0,0,0-5.89,3.88,18.16,18.16,0,0,0-3.92,5.82,18.44,18.44,0,0,0-1.39,7.25,18.75,18.75,0,0,0,1.39,7.29,17.72,17.72,0,0,0,9.81,9.67A19.62,19.62,0,0,0,451.11,338.2Z"/><path class="cls-6" d="M148.64,373.6l-4.78-14.3H146l4.39,13.2H149.3l4.55-13.2h1.88l4.45,13.2h-1l4.45-13.2h1.94l-4.78,14.3h-2.14l-4.17-12.24H155l-4.18,12.24Z"/><path class="cls-7" d="M173.85,371.82h8.33v1.78H171.8V359.3h10.09v1.78h-8Zm-.19-6.35H181v1.74h-7.36Z"/><path class="cls-8" d="M198.5,373.6V359.3h6.41a6.26,6.26,0,0,1,3.8,1A3.18,3.18,0,0,1,210,363a3.49,3.49,0,0,1-.52,2,3.39,3.39,0,0,1-1.4,1.22,4.21,4.21,0,0,1-1.9.43l.37-.61a5,5,0,0,1,2.16.43,3.42,3.42,0,0,1,1.5,1.26,3.66,3.66,0,0,1,.55,2.05,3.34,3.34,0,0,1-1.38,2.85,6.94,6.94,0,0,1-4.1,1Zm2-1.66h4.7a4.89,4.89,0,0,0,2.6-.57,2.28,2.28,0,0,0,0-3.61,4.89,4.89,0,0,0-2.6-.58h-4.88v-1.65h4.37a4.32,4.32,0,0,0,2.41-.57,2.14,2.14,0,0,0,0-3.43,4.32,4.32,0,0,0-2.41-.57h-4.19Z"/><path class="cls-9" d="M223.65,373.76a6,6,0,0,1-4.44-1.61,6.43,6.43,0,0,1-1.61-4.72V359.3h2v8.05a4.92,4.92,0,0,0,1.05,3.49,4.6,4.6,0,0,0,6,0,4.92,4.92,0,0,0,1.05-3.49V359.3h2v8.13a6.42,6.42,0,0,1-1.6,4.72A6,6,0,0,1,223.65,373.76Z"/><path class="cls-10" d="M237.64,373.6V359.3h2v14.3Z"/><path class="cls-11" d="M247.73,373.6V359.3h2v12.52h7.74v1.78Z"/><path class="cls-12" d="M263.62,373.6V359.3h6a8.71,8.71,0,0,1,4,.9,6.64,6.64,0,0,1,2.71,2.51,7.7,7.7,0,0,1,0,7.48,6.64,6.64,0,0,1-2.71,2.51,8.71,8.71,0,0,1-4,.9Zm2-1.78h3.86a6.6,6.6,0,0,0,3.08-.67,5,5,0,0,0,2-1.89,5.94,5.94,0,0,0,0-5.63,5,5,0,0,0-2-1.88,6.6,6.6,0,0,0-3.08-.67h-3.86Z"/><path class="cls-13" d="M293.5,373.6V359.3h6a8.67,8.67,0,0,1,4,.9,6.73,6.73,0,0,1,2.72,2.51,7.7,7.7,0,0,1,0,7.48,6.73,6.73,0,0,1-2.72,2.51,8.67,8.67,0,0,1-4,.9Zm2-1.78h3.86a6.6,6.6,0,0,0,3.08-.67,5,5,0,0,0,2-1.89,5.94,5.94,0,0,0,0-5.63,5,5,0,0,0-2-1.88,6.6,6.6,0,0,0-3.08-.67h-3.86Z"/><path class="cls-14" d="M314.13,373.6V359.3h5.58a7.88,7.88,0,0,1,3.2.59,4.59,4.59,0,0,1,2,1.72,5.38,5.38,0,0,1,0,5.34,4.63,4.63,0,0,1-2,1.71,7.88,7.88,0,0,1-3.2.59h-4.46l.92-.94v5.29Zm2-5.09-.92-1h4.4a4.51,4.51,0,0,0,3-.85,2.93,2.93,0,0,0,1-2.38,2.89,2.89,0,0,0-1-2.36,4.57,4.57,0,0,0-3-.84h-4.4l.92-1Zm7.52,5.09-3.64-5.19h2.19l3.68,5.19Z"/><path class="cls-15" d="M334.78,371.82h8.34v1.78H332.74V359.3h10.09v1.78h-8.05Zm-.18-6.35H342v1.74H334.6Z"/><path class="cls-16" d="M348,373.6l6.47-14.3h2l6.5,14.3h-2.15l-5.78-13.16h.82l-5.78,13.16Zm2.75-3.58.56-1.63h8L360,370Z"/><path class="cls-17" d="M368.89,373.6V359.3h1.68L377,370.11h-.9l6.33-10.81h1.68l0,14.3h-2l0-11.22h.47L377,371.86H376l-5.68-9.48h.51V373.6Z"/><path class="cls-7" d="M396.32,373.76a9.53,9.53,0,0,1-3.12-.5,6.17,6.17,0,0,1-2.35-1.3l.75-1.59a6.74,6.74,0,0,0,2.09,1.19,7.55,7.55,0,0,0,2.63.47,6,6,0,0,0,2-.29,2.4,2.4,0,0,0,1.14-.79,1.89,1.89,0,0,0,.37-1.13,1.56,1.56,0,0,0-.48-1.19,3.67,3.67,0,0,0-1.25-.72,15.43,15.43,0,0,0-1.68-.48c-.62-.14-1.23-.3-1.85-.48a8.41,8.41,0,0,1-1.7-.7,3.42,3.42,0,0,1-1.23-1.16,3.3,3.3,0,0,1-.47-1.87,3.74,3.74,0,0,1,.58-2,4,4,0,0,1,1.8-1.49,7.3,7.3,0,0,1,3.09-.56,9.85,9.85,0,0,1,2.47.32,7.16,7.16,0,0,1,2.13.94l-.68,1.64a6.42,6.42,0,0,0-1.94-.89,7.33,7.33,0,0,0-2-.28,5.56,5.56,0,0,0-2,.31,2.33,2.33,0,0,0-1.13.82,1.93,1.93,0,0,0-.36,1.14,1.59,1.59,0,0,0,.48,1.21,3.45,3.45,0,0,0,1.24.71,15.63,15.63,0,0,0,1.69.48c.61.14,1.23.3,1.85.48a8.3,8.3,0,0,1,1.69.69,3.51,3.51,0,0,1,1.24,1.15,3.33,3.33,0,0,1,.47,1.84,3.71,3.71,0,0,1-.59,2,4.12,4.12,0,0,1-1.83,1.49A7.48,7.48,0,0,1,396.32,373.76Z"/><polygon class="cls-4" points="118.3 192.44 82.42 207.76 83.57 120.49 118.3 115.67 118.3 192.44"/><polygon class="cls-4" points="148.86 137.89 118.3 143.95 118.3 115.67 148.22 111.8 148.86 137.89"/><rect class="cls-2" x="347.89" y="275.99" width="4.57" height="4.2" transform="translate(206.06 -145.22) rotate(32.74)"/><rect class="cls-2" x="308.83" y="250.3" width="4.57" height="4.2" transform="translate(185.96 -128.17) rotate(32.74)"/><rect class="cls-2" x="269.68" y="224.42" width="4.57" height="4.2" transform="translate(165.74 -111.11) rotate(32.74)"/><rect class="cls-2" x="230.76" y="198.78" width="4.57" height="4.2" transform="translate(145.68 -94.13) rotate(32.74)"/><rect class="cls-2" x="83.07" y="100.14" width="0.47" height="4.2" transform="translate(68.54 -28.81) rotate(32.74)"/><rect class="cls-2" x="75.02" y="95.2" width="0.47" height="4.2" transform="translate(64.58 -25.24) rotate(32.74)"/></g></g></svg>