<svg xmlns="http://www.w3.org/2000/svg" viewBox="0 0 453.46 310.87"><defs><style>.cls-1{fill:#231f20;}.cls-2{fill:#fff;}.cls-3{fill:#cdfbfc;}.cls-4{fill:#3dc4c0;}.cls-5{fill:#327c7c;}.cls-6{fill:#bcd631;}.cls-7{fill:#b21e8e;}.cls-8{fill:#4d3e98;}.cls-9{fill:#e23627;}.cls-10{fill:#f26722;}.cls-11{fill:#f2c019;}.cls-12{fill:#d3bd2a;}.cls-13{fill:#cd912d;}.cls-14{fill:#c52b1c;}.cls-15{fill:#fd0;}.cls-16{fill:#00b7c3;}.cls-17{fill:#5eb546;}</style></defs><title>Asset 4</title><g id="Layer_2" data-name="Layer 2"><g id="Layer_1-2" data-name="Layer 1"><polygon class="cls-1" points="0 0 262.08 228.65 435.73 228.65 0 0"/><polygon class="cls-2" points="343.89 228.65 351.66 228.65 0 0 343.89 228.65"/><polygon class="cls-3" points="377.75 155.81 357.1 180.04 357.1 44.21 377.75 38.4 377.75 155.81"/><polygon class="cls-4" points="377.75 38.4 357.1 44.21 295.71 36.73 323.03 32.96 377.75 38.4"/><polygon class="cls-5" points="357.14 44.2 357.14 179.98 295.68 148.82 295.68 36.78 357.14 44.2"/><polygon class="cls-5" points="220.59 110.7 199.92 100.19 199.92 37.22 220.59 41.12 220.59 110.7"/><polygon class="cls-3" points="266.99 34.45 220.59 41.12 220.62 54.46 220.59 110.7 236.74 104.45 236.74 51.41 266.99 45.68 266.99 34.45"/><polygon class="cls-4" points="265.63 34.45 219.23 41.12 199.92 37.22 246.29 31.59 265.63 34.45"/><polygon class="cls-5" points="294.32 130.91 238.1 105.81 238.1 52.77 294.32 65.49 294.32 130.91"/><polygon class="cls-3" points="294.32 65.49 238.1 52.77 268.35 47.04 294.32 51.88 294.32 65.49"/><polygon class="cls-5" points="198.56 100.19 134.84 67.34 134.84 40.73 198.56 58.95 198.56 100.19"/><polygon class="cls-3" points="198.56 37.22 198.56 58.95 134.84 40.73 183.7 31.59 203.49 36.62 198.56 37.22"/><polygon class="cls-3" points="160.85 136.67 95.39 81.05 125.95 74.99 202.13 120.35 160.85 136.67"/><polygon class="cls-5" points="160.85 220.57 95.39 129.54 95.39 81.05 160.85 136.67 160.85 220.57"/><polygon class="cls-4" points="202.13 195.55 160.85 220.57 160.85 136.67 202.13 120.35 202.13 195.55"/><polygon class="cls-5" points="59.51 144.87 45.07 110.29 45.13 42.85 60.66 57.6 59.51 144.87"/><polygon class="cls-3" points="60.66 57.6 45.13 42.85 99.18 37.8 125.31 48.9 60.66 57.6"/><path d="M75.79,281.36a27.24,27.24,0,0,1-10.11-1.84,24,24,0,0,1-8.07-5.14,23.67,23.67,0,0,1-5.31-7.72,25.56,25.56,0,0,1,0-19.34,23.71,23.71,0,0,1,5.31-7.73,24.34,24.34,0,0,1,8-5.14,28.92,28.92,0,0,1,20.22,0,23.83,23.83,0,0,1,8,5.1,23.29,23.29,0,0,1,5.28,7.77,26.17,26.17,0,0,1,0,19.43,23.22,23.22,0,0,1-5.28,7.73,23.86,23.86,0,0,1-8,5.11A27.61,27.61,0,0,1,75.79,281.36Zm0-6.06a19.34,19.34,0,0,0,7.32-1.36A17.41,17.41,0,0,0,89,270.09a17.88,17.88,0,0,0,3.88-5.82A18.66,18.66,0,0,0,94.24,257,18.16,18.16,0,0,0,89,243.92,17.22,17.22,0,0,0,83.11,240a20.57,20.57,0,0,0-14.71,0,17.5,17.5,0,0,0-5.88,3.89,17.89,17.89,0,0,0-3.92,5.82A18.45,18.45,0,0,0,57.2,257a18.67,18.67,0,0,0,1.4,7.28,17.38,17.38,0,0,0,3.92,5.82,17.7,17.7,0,0,0,5.88,3.85A19.52,19.52,0,0,0,75.79,275.3Z"/><path d="M111.47,280.82V233.16h21.38q8.24,0,12.66,3.3a10.65,10.65,0,0,1,4.43,9A11.68,11.68,0,0,1,148.2,252a11.46,11.46,0,0,1-4.66,4.08,14.16,14.16,0,0,1-6.33,1.43l1.22-2a17.29,17.29,0,0,1,7.22,1.43,11.64,11.64,0,0,1,5,4.19,12.12,12.12,0,0,1,1.84,6.84,11.11,11.11,0,0,1-4.6,9.5q-4.59,3.36-13.65,3.37Zm6.81-5.52h15.66c3.76,0,6.65-.63,8.64-1.9a7.55,7.55,0,0,0,0-12c-2-1.27-4.88-1.91-8.64-1.91H117.66v-5.52h14.58q5.16,0,8-1.9a7.15,7.15,0,0,0,0-11.44q-2.86-1.91-8-1.91h-14Z"/><path d="M169.14,281.36a18,18,0,0,1-7.9-1.77,15.19,15.19,0,0,1-6-5.1l3.95-4.63a14.75,14.75,0,0,0,4.46,4.18,10.54,10.54,0,0,0,5.48,1.47q8.16,0,8.17-9.67V239.08H160.08v-5.92h24V265.5q0,8-3.78,11.91T169.14,281.36Z"/><path d="M204.75,274.89h27.77v5.93H197.94V233.16h33.63v5.92H204.75Zm-.62-21.17h24.51v5.79H204.13Z"/><path d="M264.8,281.36a27.37,27.37,0,0,1-10.05-1.8,23.55,23.55,0,0,1-8-5.11,23.83,23.83,0,0,1-5.28-7.73,25.89,25.89,0,0,1,0-19.47,23.66,23.66,0,0,1,13.31-12.83,28.65,28.65,0,0,1,20.23.07A20.82,20.82,0,0,1,283,240l-4.43,4.29a17.8,17.8,0,0,0-6.13-4.25,19,19,0,0,0-7.28-1.4,20.27,20.27,0,0,0-7.46,1.36,17.73,17.73,0,0,0-6,3.82,17.13,17.13,0,0,0-3.92,5.82,19.84,19.84,0,0,0,0,14.64,17.32,17.32,0,0,0,3.92,5.82,17.86,17.86,0,0,0,6,3.81,20.07,20.07,0,0,0,7.46,1.36,19,19,0,0,0,7.28-1.39,17.25,17.25,0,0,0,6.13-4.33l4.43,4.29a21.27,21.27,0,0,1-7.93,5.59A26.87,26.87,0,0,1,264.8,281.36Z"/><path d="M301.63,280.82V239.08H285.29v-5.92h39.42v5.92H308.37v41.74Z"/><path d="M350.45,280.82V233.16h20.08a29.06,29.06,0,0,1,13.45,3,22.18,22.18,0,0,1,9.06,8.38,25.65,25.65,0,0,1,0,24.92,22.15,22.15,0,0,1-9.06,8.37,28.94,28.94,0,0,1-13.45,3Zm6.81-5.93h12.87a21.88,21.88,0,0,0,10.24-2.24,16.33,16.33,0,0,0,6.71-6.3,19.67,19.67,0,0,0,0-18.76,16.37,16.37,0,0,0-6.71-6.26,21.88,21.88,0,0,0-10.24-2.25H357.26Z"/><path d="M428.2,281.36a27.24,27.24,0,0,1-10.11-1.84,24,24,0,0,1-8.07-5.14,23.67,23.67,0,0,1-5.31-7.72,25.56,25.56,0,0,1,0-19.34,23.71,23.71,0,0,1,5.31-7.73,24.34,24.34,0,0,1,8-5.14,28.92,28.92,0,0,1,20.22,0,23.73,23.73,0,0,1,8,5.1,23.29,23.29,0,0,1,5.28,7.77,26.17,26.17,0,0,1,0,19.43,23.22,23.22,0,0,1-5.28,7.73,23.76,23.76,0,0,1-8,5.11A27.61,27.61,0,0,1,428.2,281.36Zm0-6.06a19.26,19.26,0,0,0,7.32-1.36,17.41,17.41,0,0,0,5.86-3.85,17.88,17.88,0,0,0,3.88-5.82,18.67,18.67,0,0,0,1.4-7.28,18.22,18.22,0,0,0-5.28-13.07,17.22,17.22,0,0,0-5.86-3.89,20.54,20.54,0,0,0-14.7,0,17.54,17.54,0,0,0-5.89,3.89,18,18,0,0,0-3.92,5.82,18.44,18.44,0,0,0-1.39,7.25,18.66,18.66,0,0,0,1.39,7.28,17.53,17.53,0,0,0,3.92,5.82,17.74,17.74,0,0,0,5.89,3.85A19.43,19.43,0,0,0,428.2,275.3Z"/><path class="cls-6" d="M125.73,310.71,121,296.41h2.11l4.39,13.19h-1.06l4.55-13.19h1.88l4.45,13.19h-1l4.45-13.19h2l-4.78,14.3h-2.15l-4.17-12.24h.56l-4.19,12.24Z"/><path class="cls-7" d="M150.94,308.93h8.33v1.78H148.9v-14.3H159v1.77h-8.05Zm-.19-6.35h7.36v1.73h-7.36Z"/><path class="cls-8" d="M175.59,310.71v-14.3H182a6.3,6.3,0,0,1,3.8,1,3.19,3.19,0,0,1,1.32,2.7,3.47,3.47,0,0,1-.52,2,3.34,3.34,0,0,1-1.4,1.23,4.21,4.21,0,0,1-1.9.43l.37-.61a5.13,5.13,0,0,1,2.17.43,3.5,3.5,0,0,1,1.49,1.25,3.68,3.68,0,0,1,.55,2,3.32,3.32,0,0,1-1.38,2.85,6.85,6.85,0,0,1-4.1,1Zm2-1.66h4.7a4.89,4.89,0,0,0,2.6-.57,2,2,0,0,0,.9-1.8,2,2,0,0,0-.9-1.82,4.89,4.89,0,0,0-2.6-.57h-4.88v-1.65h4.37a4.23,4.23,0,0,0,2.41-.58,2.14,2.14,0,0,0,0-3.43,4.32,4.32,0,0,0-2.41-.57h-4.19Z"/><path class="cls-9" d="M200.74,310.87a6,6,0,0,1-4.44-1.61,6.43,6.43,0,0,1-1.61-4.72v-8.13h2v8a4.94,4.94,0,0,0,1.05,3.49,4.6,4.6,0,0,0,6,0,4.94,4.94,0,0,0,1.05-3.49v-8h2v8.13a6.42,6.42,0,0,1-1.6,4.72A6,6,0,0,1,200.74,310.87Z"/><path class="cls-10" d="M214.73,310.71v-14.3h2v14.3Z"/><path class="cls-11" d="M224.82,310.71v-14.3h2v12.52h7.74v1.78Z"/><path class="cls-12" d="M240.71,310.71v-14.3h6a8.71,8.71,0,0,1,4,.9,6.58,6.58,0,0,1,2.71,2.51,7.61,7.61,0,0,1,0,7.47,6.6,6.6,0,0,1-2.71,2.52,8.71,8.71,0,0,1-4,.9Zm2-1.78h3.86a6.6,6.6,0,0,0,3.08-.68,5,5,0,0,0,2-1.89,5.92,5.92,0,0,0,0-5.62,4.93,4.93,0,0,0-2-1.88,6.6,6.6,0,0,0-3.08-.68h-3.86Z"/><path class="cls-13" d="M270.59,310.71v-14.3h6a8.67,8.67,0,0,1,4,.9,6.6,6.6,0,0,1,2.72,2.51,7.68,7.68,0,0,1,0,7.47,6.63,6.63,0,0,1-2.72,2.52,8.67,8.67,0,0,1-4,.9Zm2-1.78h3.86a6.6,6.6,0,0,0,3.08-.68,5,5,0,0,0,2-1.89,5.84,5.84,0,0,0,0-5.62,4.93,4.93,0,0,0-2-1.88,6.6,6.6,0,0,0-3.08-.68h-3.86Z"/><path class="cls-14" d="M291.22,310.71v-14.3h5.58a7.72,7.72,0,0,1,3.2.59,4.57,4.57,0,0,1,2.05,1.71,5,5,0,0,1,.71,2.68,4.9,4.9,0,0,1-.71,2.67,4.55,4.55,0,0,1-2.05,1.7,7.72,7.72,0,0,1-3.2.59h-4.45l.91-.93v5.29Zm2-5.09-.91-1h4.39a4.51,4.51,0,0,0,3-.85,3.3,3.3,0,0,0,0-4.75,4.57,4.57,0,0,0-3-.84h-4.39l.91-1Zm7.52,5.09-3.63-5.19h2.18l3.68,5.19Z"/><path class="cls-15" d="M311.87,308.93h8.34v1.78H309.83v-14.3h10.09v1.77h-8.05Zm-.18-6.35H319v1.73h-7.35Z"/><path class="cls-16" d="M325.11,310.71l6.47-14.3h2l6.5,14.3H338l-5.78-13.16H333l-5.78,13.16Zm2.76-3.58.55-1.63h8l.6,1.63Z"/><path class="cls-17" d="M346,310.71v-14.3h1.68l6.41,10.8h-.9l6.34-10.8h1.67l0,14.3h-2l0-11.22h.47L354.05,309h-.94l-5.68-9.48h.51v11.22Z"/><path class="cls-7" d="M373.41,310.87a9.8,9.8,0,0,1-3.12-.5,6.54,6.54,0,0,1-2.35-1.3l.76-1.59a6.48,6.48,0,0,0,2.08,1.18,7.33,7.33,0,0,0,2.63.47,6.05,6.05,0,0,0,2-.28,2.42,2.42,0,0,0,1.14-.79,1.82,1.82,0,0,0,.37-1.13,1.56,1.56,0,0,0-.48-1.19,3.52,3.52,0,0,0-1.25-.72,12,12,0,0,0-1.68-.48c-.62-.14-1.23-.3-1.85-.48a8.42,8.42,0,0,1-1.7-.71,3.4,3.4,0,0,1-1.23-1.15,3.35,3.35,0,0,1-.47-1.87,3.72,3.72,0,0,1,.58-2,4,4,0,0,1,1.8-1.49,7.29,7.29,0,0,1,3.09-.57,9.42,9.42,0,0,1,2.47.33,6.92,6.92,0,0,1,2.13.94l-.68,1.63a6.64,6.64,0,0,0-1.94-.88,7.33,7.33,0,0,0-2-.28,5.34,5.34,0,0,0-2,.31,2.36,2.36,0,0,0-1.13.81,2,2,0,0,0-.36,1.15,1.57,1.57,0,0,0,.48,1.2,3.43,3.43,0,0,0,1.25.72q.76.25,1.68.48c.61.14,1.23.3,1.85.48a7.77,7.77,0,0,1,1.69.69,3.43,3.43,0,0,1,1.24,1.15,3.27,3.27,0,0,1,.47,1.83,3.72,3.72,0,0,1-.59,2,4.19,4.19,0,0,1-1.83,1.49A7.61,7.61,0,0,1,373.41,310.87Z"/><polygon class="cls-4" points="95.39 129.54 59.51 144.87 60.66 57.6 95.39 52.77 95.39 129.54"/><polygon class="cls-4" points="125.95 74.99 95.39 81.05 95.39 52.77 125.31 48.9 125.95 74.99"/><rect class="cls-1" x="324.98" y="213.1" width="4.57" height="4.2" transform="translate(168.4 -142.82) rotate(32.74)"/><rect class="cls-1" x="285.92" y="187.4" width="4.57" height="4.2" transform="translate(148.3 -125.77) rotate(32.74)"/><rect class="cls-1" x="246.77" y="161.52" width="4.57" height="4.2" transform="translate(128.08 -108.71) rotate(32.74)"/><rect class="cls-1" x="207.85" y="135.89" width="4.57" height="4.2" transform="translate(108.03 -91.73) rotate(32.74)"/><rect class="cls-1" x="60.16" y="37.24" width="0.47" height="4.2" transform="translate(30.88 -26.42) rotate(32.74)"/><rect class="cls-1" x="52.11" y="32.3" width="0.47" height="4.2" transform="translate(26.93 -22.85) rotate(32.74)"/></g></g></svg>